<mxfile>
    <diagram id="dkHl4oXMLSKDl6XzIltV" name="Page-1">
        <mxGraphModel dx="1372" dy="694" grid="1" gridSize="10" guides="1" tooltips="1" connect="1" arrows="1" fold="1" page="1" pageScale="1" pageWidth="850" pageHeight="1100" math="0" shadow="0">
            <root>
                <mxCell id="0"/>
                <mxCell id="1" parent="0"/>
                <mxCell id="GjfSUHEEyUtNjIspiotB-33" style="edgeStyle=orthogonalEdgeStyle;rounded=0;orthogonalLoop=1;jettySize=auto;html=1;entryX=0;entryY=0.5;entryDx=0;entryDy=0;" parent="1" source="GjfSUHEEyUtNjIspiotB-28" target="GjfSUHEEyUtNjIspiotB-30" edge="1">
                    <mxGeometry relative="1" as="geometry"/>
                </mxCell>
                <mxCell id="GjfSUHEEyUtNjIspiotB-28" value="..." style="rounded=0;whiteSpace=wrap;html=1;" parent="1" vertex="1">
                    <mxGeometry x="25" y="30" width="120" height="60" as="geometry"/>
                </mxCell>
                <mxCell id="GjfSUHEEyUtNjIspiotB-35" style="edgeStyle=orthogonalEdgeStyle;rounded=0;orthogonalLoop=1;jettySize=auto;html=1;" parent="1" source="GjfSUHEEyUtNjIspiotB-30" target="GjfSUHEEyUtNjIspiotB-34" edge="1">
                    <mxGeometry relative="1" as="geometry"/>
                </mxCell>
                <mxCell id="GjfSUHEEyUtNjIspiotB-30" value="command_t" style="rounded=0;whiteSpace=wrap;html=1;" parent="1" vertex="1">
                    <mxGeometry x="195" y="30" width="120" height="60" as="geometry"/>
                </mxCell>
                <mxCell id="GjfSUHEEyUtNjIspiotB-37" style="edgeStyle=orthogonalEdgeStyle;rounded=0;orthogonalLoop=1;jettySize=auto;html=1;" parent="1" source="GjfSUHEEyUtNjIspiotB-34" target="GjfSUHEEyUtNjIspiotB-36" edge="1">
                    <mxGeometry relative="1" as="geometry"/>
                </mxCell>
                <mxCell id="GjfSUHEEyUtNjIspiotB-34" value="separator_t" style="rounded=0;whiteSpace=wrap;html=1;" parent="1" vertex="1">
                    <mxGeometry x="365" y="30" width="120" height="60" as="geometry"/>
                </mxCell>
                <mxCell id="GjfSUHEEyUtNjIspiotB-39" style="edgeStyle=orthogonalEdgeStyle;rounded=0;orthogonalLoop=1;jettySize=auto;html=1;entryX=0;entryY=0.5;entryDx=0;entryDy=0;" parent="1" source="GjfSUHEEyUtNjIspiotB-36" target="GjfSUHEEyUtNjIspiotB-38" edge="1">
                    <mxGeometry relative="1" as="geometry"/>
                </mxCell>
                <mxCell id="GjfSUHEEyUtNjIspiotB-36" value="command_t" style="rounded=0;whiteSpace=wrap;html=1;" parent="1" vertex="1">
                    <mxGeometry x="535" y="30" width="120" height="60" as="geometry"/>
                </mxCell>
                <mxCell id="GjfSUHEEyUtNjIspiotB-38" value="..." style="rounded=0;whiteSpace=wrap;html=1;" parent="1" vertex="1">
                    <mxGeometry x="705" y="30" width="120" height="60" as="geometry"/>
                </mxCell>
                <mxCell id="GjfSUHEEyUtNjIspiotB-42" style="edgeStyle=orthogonalEdgeStyle;rounded=0;orthogonalLoop=1;jettySize=auto;html=1;entryX=0;entryY=0.5;entryDx=0;entryDy=0;" parent="1" source="GjfSUHEEyUtNjIspiotB-40" target="GjfSUHEEyUtNjIspiotB-41" edge="1">
                    <mxGeometry relative="1" as="geometry"/>
                </mxCell>
                <mxCell id="GjfSUHEEyUtNjIspiotB-40" value="PROGRAM ADV" style="rounded=0;whiteSpace=wrap;html=1;" parent="1" vertex="1">
                    <mxGeometry x="25" y="170" width="120" height="60" as="geometry"/>
                </mxCell>
                <mxCell id="GjfSUHEEyUtNjIspiotB-43" style="edgeStyle=orthogonalEdgeStyle;rounded=0;orthogonalLoop=1;jettySize=auto;html=1;" parent="1" source="GjfSUHEEyUtNjIspiotB-41" edge="1">
                    <mxGeometry relative="1" as="geometry">
                        <mxPoint x="255" y="280" as="targetPoint"/>
                    </mxGeometry>
                </mxCell>
                <mxCell id="GjfSUHEEyUtNjIspiotB-46" style="edgeStyle=orthogonalEdgeStyle;rounded=0;orthogonalLoop=1;jettySize=auto;html=1;entryX=0;entryY=0.5;entryDx=0;entryDy=0;" parent="1" source="GjfSUHEEyUtNjIspiotB-41" target="GjfSUHEEyUtNjIspiotB-45" edge="1">
                    <mxGeometry relative="1" as="geometry"/>
                </mxCell>
                <mxCell id="GjfSUHEEyUtNjIspiotB-41" value="INITIALISATION" style="rounded=0;whiteSpace=wrap;html=1;" parent="1" vertex="1">
                    <mxGeometry x="195" y="170" width="120" height="60" as="geometry"/>
                </mxCell>
                <mxCell id="GjfSUHEEyUtNjIspiotB-44" value="creation env" style="rounded=0;whiteSpace=wrap;html=1;" parent="1" vertex="1">
                    <mxGeometry x="195" y="280" width="120" height="60" as="geometry"/>
                </mxCell>
                <mxCell id="GjfSUHEEyUtNjIspiotB-49" style="edgeStyle=orthogonalEdgeStyle;rounded=0;orthogonalLoop=1;jettySize=auto;html=1;" parent="1" source="GjfSUHEEyUtNjIspiotB-45" target="GjfSUHEEyUtNjIspiotB-48" edge="1">
                    <mxGeometry relative="1" as="geometry"/>
                </mxCell>
                <mxCell id="GjfSUHEEyUtNjIspiotB-57" style="edgeStyle=orthogonalEdgeStyle;rounded=0;orthogonalLoop=1;jettySize=auto;html=1;entryX=0;entryY=0.5;entryDx=0;entryDy=0;" parent="1" source="GjfSUHEEyUtNjIspiotB-45" target="GjfSUHEEyUtNjIspiotB-56" edge="1">
                    <mxGeometry relative="1" as="geometry"/>
                </mxCell>
                <mxCell id="GjfSUHEEyUtNjIspiotB-45" value="Main loop" style="rounded=0;whiteSpace=wrap;html=1;" parent="1" vertex="1">
                    <mxGeometry x="380" y="170" width="120" height="60" as="geometry"/>
                </mxCell>
                <mxCell id="GjfSUHEEyUtNjIspiotB-51" style="edgeStyle=orthogonalEdgeStyle;rounded=0;orthogonalLoop=1;jettySize=auto;html=1;entryX=0.5;entryY=0;entryDx=0;entryDy=0;" parent="1" source="GjfSUHEEyUtNjIspiotB-48" target="GjfSUHEEyUtNjIspiotB-50" edge="1">
                    <mxGeometry relative="1" as="geometry"/>
                </mxCell>
                <mxCell id="GjfSUHEEyUtNjIspiotB-48" value="&lt;div&gt;Parsing&lt;/div&gt;" style="rounded=0;whiteSpace=wrap;html=1;" parent="1" vertex="1">
                    <mxGeometry x="380" y="270" width="120" height="60" as="geometry"/>
                </mxCell>
                <mxCell id="GjfSUHEEyUtNjIspiotB-55" style="edgeStyle=orthogonalEdgeStyle;rounded=0;orthogonalLoop=1;jettySize=auto;html=1;entryX=1;entryY=0.5;entryDx=0;entryDy=0;" parent="1" source="GjfSUHEEyUtNjIspiotB-50" target="GjfSUHEEyUtNjIspiotB-45" edge="1">
                    <mxGeometry relative="1" as="geometry">
                        <Array as="points">
                            <mxPoint x="520" y="400"/>
                            <mxPoint x="520" y="200"/>
                        </Array>
                    </mxGeometry>
                </mxCell>
                <mxCell id="GjfSUHEEyUtNjIspiotB-50" value="exec loop" style="rounded=0;whiteSpace=wrap;html=1;" parent="1" vertex="1">
                    <mxGeometry x="380" y="370" width="120" height="60" as="geometry"/>
                </mxCell>
                <mxCell id="GjfSUHEEyUtNjIspiotB-56" value="&lt;div&gt;exit&lt;/div&gt;&lt;div&gt;destroy&lt;br&gt;&lt;/div&gt;" style="rounded=0;whiteSpace=wrap;html=1;" parent="1" vertex="1">
                    <mxGeometry x="570" y="170" width="120" height="60" as="geometry"/>
                </mxCell>
            </root>
        </mxGraphModel>
    </diagram>
</mxfile>